<svg id="Layer_1" data-name="Layer 1" xmlns="http://www.w3.org/2000/svg" xmlns:xlink="http://www.w3.org/1999/xlink" viewBox="0 0 600 600"><defs><style>.cls-1{fill:none;}.cls-2{clip-path:url(#clip-path);}</style><clipPath id="clip-path"><rect class="cls-1" x="158.71" y="-8.37" width="281.58" height="608.61"/></clipPath></defs><g class="cls-2"><path d="M422.16,481.81H428v-7.65h-5.85v-8.27h-9.82v8.27H407v7.65h5.31v37.51h9.82ZM400.9,504.32a7.05,7.05,0,0,0-2.52-5.36l-9.55-8.65a4.94,4.94,0,0,1-1.89-3.91v-2q0-2.37,2.52-2.37h10.09v-7.88h-14q-8.28,0-8.28,8.8v4.9a6.7,6.7,0,0,0,.63,3,8.28,8.28,0,0,0,1.89,2.41l9.45,8.65a5,5,0,0,1,1.71,3.91v3.21a2.12,2.12,0,0,1-2.43,2.38H377.22v7.88h15.4q8.28,0,8.28-8.8Zm-33-30.16h-9.82v36.51c0,.51-.24.77-.72.77h-4.14c-1.38,0-2.07-.82-2.07-2.45V474.16h-9.82v36q0,9.2,8.29,9.19H364q4,0,4-3.29Zm-49.17-6.89c.48,0,.72.18.72.53l1.44,21.13H316l1.53-21.13c0-.35.24-.53.72-.53Zm9.18-5.21q-.45-3.13-3.87-3.14H312.46q-3.33,0-3.6,3.14l-5.94,57.26h11L315.44,497h6l1.62,22.35H333.9ZM264.1,511.74c-1.44,0-2.16-.81-2.16-2.45v-9.57q0-2.52,2.07-2.52h4.87V511c0,.51-.27.76-.81.76Zm14.59-28.4q0-9.18-8.28-9.18H253.75V482h13c1.44,0,2.16.82,2.16,2.45v6.28h-8.65q-7.92,0-7.92,9.26v10.1q0,9.2,8.28,9.19h14.05q4,0,4.05-3.29Zm-35.21,21A7.05,7.05,0,0,0,241,499l-9.55-8.65a4.94,4.94,0,0,1-1.89-3.91v-2q0-2.37,2.52-2.37h10.09v-7.88h-14q-8.28,0-8.29,8.8v4.9a6.7,6.7,0,0,0,.63,3,8.16,8.16,0,0,0,1.9,2.41l9.45,8.65a5,5,0,0,1,1.71,3.91v3.21a2.12,2.12,0,0,1-2.43,2.38H219.79v7.88h15.4q8.3,0,8.29-8.8Zm-33-44.1H200.7V471h9.82Zm0,13.94H200.7v45.16h9.82Zm-18.19,36.89h-8.92q-.9,0-.9-.84V458.92H172.24V515.8q0,3.53,4.06,3.52h16Z"/><path d="M396.58,572.53a7.05,7.05,0,0,0-2.52-5.36l-9.55-8.65a4.94,4.94,0,0,1-1.89-3.9v-2q0-2.37,2.52-2.37h10.09v-7.89h-14q-8.29,0-8.29,8.8v4.9a6.74,6.74,0,0,0,.63,3,8.42,8.42,0,0,0,1.89,2.41l9.46,8.65a5,5,0,0,1,1.71,3.9v3.22a2.12,2.12,0,0,1-2.43,2.37H372.89v7.89h15.4q8.29,0,8.29-8.81Zm-33-21q0-9.19-8.29-9.19h-10q-8.28,0-8.28,9.19v26.79q0,9.18,8.28,9.19h10q8.28,0,8.29-9.19Zm-14.68,28.09c-1.38,0-2.07-.81-2.07-2.45V552.71c0-1.64.69-2.45,2.07-2.45h2.7c1.44,0,2.16.81,2.16,2.45V577.2c0,1.64-.72,2.45-2.16,2.45ZM323.63,550h5.86v-7.66h-5.86V534.1h-9.82v8.27H308.5V550h5.31v37.51h9.82Zm-22.69,1.53q0-9.19-8.29-9.19h-10q-8.28,0-8.28,9.19v26.79q0,9.18,8.28,9.19h10q8.28,0,8.29-9.19Zm-14.68,28.09c-1.39,0-2.08-.81-2.08-2.45V552.71c0-1.64.69-2.45,2.08-2.45H289c1.44,0,2.16.81,2.16,2.45V577.2c0,1.64-.72,2.45-2.16,2.45ZM265,551.56q0-9.19-8.28-9.19h-8.47V527.14h-9.81v60.4h9.81V550.26H253c1.44,0,2.16.81,2.16,2.45v34.83H265Zm-52.68,35.59h8.46q8.29,0,8.29-9.11V551.56q0-9.19-8.29-9.19h-14.4q-3.88,0-3.88,3.29v54.58h9.82Zm0-7.88V551c0-.51.24-.76.72-.76h4.05c1.44,0,2.16.81,2.16,2.45v24.11c0,1.63-.72,2.45-2.16,2.45Z"/><path d="M430,372.53H242.27c-3.94,0-5.91-2-5.91-6V-.39H169V406.48q0,25.2,26.6,25.19H430Z"/><path d="M333.5,294.73q-14.37,0-14.37-19.15V200.76q0-19.74,13.77-19.75h32.32V288.74c0,4-1.8,6-5.39,6Zm96.95-222Q430.45.86,375.39.86H264.67V62.51h86.18q14.37,0,14.37,19.15v49.08H307.76q-52.68,0-52.67,72.42v79q0,71.82,55.06,71.82h93.37q26.94,0,26.93-25.74Z"/></g></svg>