<svg xmlns="http://www.w3.org/2000/svg" viewBox="0 0 456.17 110.6">
  <defs>
    <style>
      .cls-1 {
        fill: #3c366b;
      }

      .cls-2 {
        fill: #19202c;
      }
    </style>
  </defs>
  <g id="Layer_2" data-name="Layer 2">
    <g id="Layer_1-2" data-name="Layer 1">
      <path class="cls-1" d="M20,94.79v-90H0v100a10,10,0,0,0,10,10H110v-20Z" transform="translate(0 -4.79)"/>
      <path class="cls-1" d="M100,4.79H30v20H90v10H40a10,10,0,0,0-10,10v30a10,10,0,0,0,10,10h60a10,10,0,0,0,10-10v-60A10,10,0,0,0,100,4.79Zm-10,60H50v-10H90Z" transform="translate(0 -4.79)"/>
      <g>
        <path class="cls-1" d="M135.21,8.87h11.71V41h19.75v9.28H135.21Z" transform="translate(0 -4.79)"/>
        <path class="cls-1" d="M171.28,8.87H183V50.26H171.28Z" transform="translate(0 -4.79)"/>
        <path class="cls-1" d="M196.12,49.85a24,24,0,0,1-7.69-3.31l3.84-8.64a25.19,25.19,0,0,0,6.45,3A24.48,24.48,0,0,0,205.93,42c4.5,0,6.74-1.12,6.74-3.37A2.79,2.79,0,0,0,210.75,36a35.41,35.41,0,0,0-6.18-1.8,58.84,58.84,0,0,1-7.8-2.16,13.12,13.12,0,0,1-5.38-3.7,10,10,0,0,1-2.25-6.86,11.9,11.9,0,0,1,2.07-6.83,13.82,13.82,0,0,1,6.18-4.81A25.3,25.3,0,0,1,207.47,8a35.6,35.6,0,0,1,8,.92,24.7,24.7,0,0,1,7,2.69l-3.61,8.69a24.05,24.05,0,0,0-11.47-3.19,9.6,9.6,0,0,0-5.08,1,3.1,3.1,0,0,0-1.6,2.69,2.68,2.68,0,0,0,1.89,2.49,34.27,34.27,0,0,0,6.09,1.71,56.68,56.68,0,0,1,7.84,2.16,13.51,13.51,0,0,1,5.38,3.67,9.77,9.77,0,0,1,2.28,6.83,11.64,11.64,0,0,1-2.07,6.74,14.17,14.17,0,0,1-6.21,4.82,25.15,25.15,0,0,1-10.05,1.8A38.12,38.12,0,0,1,196.12,49.85Z" transform="translate(0 -4.79)"/>
        <path class="cls-1" d="M257.32,42.22h-17.5l-3.26,8H224.62L242.89,8.87h11.53l18.33,41.39H260.57Zm-3.43-8.63-5.32-13.25-5.32,13.25Z" transform="translate(0 -4.79)"/>
        <path class="cls-1" d="M321,42.22H303.5l-3.25,8H288.3L306.57,8.87H318.1l18.33,41.39H324.25Zm-3.43-8.63-5.32-13.25-5.32,13.25Z" transform="translate(0 -4.79)"/>
        <path class="cls-1" d="M343.62,46.06q-5.12-5-5.12-14.25V8.87h11.71V31.46q0,9.93,7.87,9.93t7.8-9.93V8.87h11.53V31.81q0,9.23-5.11,14.25t-14.34,5Q348.74,51.09,343.62,46.06Z" transform="translate(0 -4.79)"/>
        <path class="cls-1" d="M390.13,49.85a24,24,0,0,1-7.69-3.31l3.84-8.64a24.88,24.88,0,0,0,6.45,3A24.48,24.48,0,0,0,399.94,42c4.5,0,6.74-1.12,6.74-3.37A2.79,2.79,0,0,0,404.76,36a35.41,35.41,0,0,0-6.18-1.8,58.84,58.84,0,0,1-7.8-2.16,13.05,13.05,0,0,1-5.38-3.7,10,10,0,0,1-2.25-6.86,11.9,11.9,0,0,1,2.07-6.83,13.82,13.82,0,0,1,6.18-4.81A25.3,25.3,0,0,1,401.48,8a35.6,35.6,0,0,1,8,.92,24.7,24.7,0,0,1,7,2.69l-3.61,8.69a24.08,24.08,0,0,0-11.47-3.19,9.64,9.64,0,0,0-5.09,1,3.11,3.11,0,0,0-1.59,2.69,2.68,2.68,0,0,0,1.89,2.49,34.27,34.27,0,0,0,6.09,1.71,57.08,57.08,0,0,1,7.84,2.16,13.51,13.51,0,0,1,5.38,3.67,9.81,9.81,0,0,1,2.27,6.83,11.64,11.64,0,0,1-2.07,6.74,14.19,14.19,0,0,1-6.2,4.82,25.2,25.2,0,0,1-10.06,1.8A38.1,38.1,0,0,1,390.13,49.85Z" transform="translate(0 -4.79)"/>
        <path class="cls-1" d="M431.81,18.15H419.1V8.87h37.07v9.28H443.52V50.26H431.81Z" transform="translate(0 -4.79)"/>
        <path class="cls-2" d="M146.22,105a10.55,10.55,0,0,1-4.32-.87,8,8,0,0,1-3.27-2.68h-.27a31.8,31.8,0,0,1,.27,4v10H135V80.32h3l.51,3.32h.18a8.32,8.32,0,0,1,3.29-2.87,10,10,0,0,1,4.3-.89,9,9,0,0,1,7.43,3.29c1.75,2.2,2.62,5.27,2.62,9.23s-.89,7.06-2.66,9.26A9,9,0,0,1,146.22,105Zm-.53-22q-3.7,0-5.36,2c-1.11,1.37-1.67,3.55-1.7,6.53v.82c0,3.4.56,5.83,1.7,7.3s2.95,2.2,5.45,2.2a5.67,5.67,0,0,0,4.91-2.54,12,12,0,0,0,1.78-7c0-3-.59-5.33-1.78-7A5.84,5.84,0,0,0,145.69,83Z" transform="translate(0 -4.79)"/>
        <path class="cls-2" d="M179.23,104.52V88.87a6.32,6.32,0,0,0-1.35-4.42A5.47,5.47,0,0,0,173.67,83q-3.82,0-5.58,2.07c-1.17,1.39-1.75,3.65-1.75,6.8v12.65h-3.67V70.17h3.67v10.4a22.16,22.16,0,0,1-.18,3.11h.22a7.5,7.5,0,0,1,3.08-2.75,10,10,0,0,1,4.56-1q4.44,0,6.66,2.11t2.22,6.7v15.78Z" transform="translate(0 -4.79)"/>
        <path class="cls-2" d="M211.31,92.4q0,5.92-3,9.24a10.48,10.48,0,0,1-8.24,3.32,10.87,10.87,0,0,1-5.76-1.52,10,10,0,0,1-3.88-4.37,15.13,15.13,0,0,1-1.37-6.67q0-5.91,3-9.22a10.46,10.46,0,0,1,8.21-3.3,10.26,10.26,0,0,1,8.07,3.38Q211.31,86.64,211.31,92.4Zm-18.43,0c0,3.09.61,5.45,1.85,7.07a6.43,6.43,0,0,0,5.45,2.43,6.5,6.5,0,0,0,5.47-2.42q1.86-2.42,1.86-7.08t-1.86-7A6.55,6.55,0,0,0,200.14,83a6.43,6.43,0,0,0-5.43,2.36Q192.88,87.72,192.88,92.4Z" transform="translate(0 -4.79)"/>
        <path class="cls-2" d="M225.55,101.94a12.79,12.79,0,0,0,1.88-.14,13.66,13.66,0,0,0,1.43-.3v2.8a6.82,6.82,0,0,1-1.75.48A13.83,13.83,0,0,1,225,105q-7,0-7-7.39V83.17h-3.47V81.41L218,79.88l1.55-5.16h2.12v5.6h7v2.85h-7V97.41a4.91,4.91,0,0,0,1,3.36A3.62,3.62,0,0,0,225.55,101.94Z" transform="translate(0 -4.79)"/>
        <path class="cls-2" d="M254.59,92.4q0,5.92-3,9.24a10.5,10.5,0,0,1-8.24,3.32,10.87,10.87,0,0,1-5.76-1.52,10,10,0,0,1-3.89-4.37,15.27,15.27,0,0,1-1.37-6.67q0-5.91,3-9.22a10.46,10.46,0,0,1,8.21-3.3,10.23,10.23,0,0,1,8.07,3.38Q254.59,86.64,254.59,92.4Zm-18.44,0q0,4.63,1.85,7.07a7.36,7.36,0,0,0,10.92,0q1.88-2.42,1.87-7.08t-1.87-7A6.54,6.54,0,0,0,243.41,83,6.43,6.43,0,0,0,238,85.36Q236.15,87.72,236.15,92.4Z" transform="translate(0 -4.79)"/>
        <path class="cls-2" d="M276.62,97.92a6.06,6.06,0,0,1-2.52,5.21A11.81,11.81,0,0,1,267,105a15.34,15.34,0,0,1-7.51-1.52V100a18.13,18.13,0,0,0,3.74,1.39,15.65,15.65,0,0,0,3.86.51,8.73,8.73,0,0,0,4.41-.92,3.15,3.15,0,0,0,.32-5.21,19.06,19.06,0,0,0-4.78-2.37,25.7,25.7,0,0,1-4.8-2.2,6.42,6.42,0,0,1-2.12-2.13,5.57,5.57,0,0,1-.69-2.85,5.44,5.44,0,0,1,2.4-4.67,11.24,11.24,0,0,1,6.6-1.71,19.31,19.31,0,0,1,7.64,1.59l-1.3,3a17.56,17.56,0,0,0-6.6-1.5,7.52,7.52,0,0,0-3.93.82A2.53,2.53,0,0,0,263,86a2.77,2.77,0,0,0,.5,1.66,5,5,0,0,0,1.6,1.3,36.41,36.41,0,0,0,4.24,1.79c2.87,1,4.81,2.1,5.82,3.15A5.58,5.58,0,0,1,276.62,97.92Z" transform="translate(0 -4.79)"/>
      </g>
    </g>
  </g>
</svg>
